FILE "Tekken 2 (Europe).bin" BINARY
  TRACK 01 MODE2/2352
    INDEX 01 00:00:00
  TRACK 02 AUDIO
    INDEX 00 67:50:10
    INDEX 01 67:52:10
  TRACK 03 AUDIO
    INDEX 00 70:20:50
    INDEX 01 70:22:50
REM LEADOUT 70:56:50
